
<svg width="145" height="40" viewBox="0 0 145 40" fill="none" xmlns="http://www.w3.org/2000/svg">
<path d="M54.9057 14.499H59.1195V15.9006H54.9057C54.1687 15.8984 53.4385 16.0411 52.7572 16.3205C52.0759 16.5999 51.4568 17.0104 50.9357 17.5284C50.4146 18.0464 50.0016 18.6617 49.7205 19.3389C49.4395 20.0161 49.2959 20.7419 49.298 21.4745C49.2959 22.207 49.4395 22.9328 49.7205 23.61C50.0016 24.2872 50.4146 24.9025 50.9357 25.4205C51.4568 25.9386 52.0759 26.349 52.7572 26.6284C53.4385 26.9078 54.1687 27.0505 54.9057 27.0484C55.6428 27.061 56.3747 26.9247 57.0573 26.6478C57.7398 26.3709 58.3587 25.9591 58.8764 25.4374C59.4043 24.9251 59.8206 24.3104 60.0994 23.6314C60.3782 22.9524 60.5136 22.2237 60.4971 21.4906V14.499H61.9071V28.4499H60.4971V25.5824C60.303 25.8427 60.0861 26.0853 59.8488 26.3073C58.8733 27.2761 57.6322 27.9378 56.2806 28.2097C54.929 28.4815 53.5268 28.3516 52.2491 27.836C50.9714 27.3204 49.8748 26.4421 49.0963 25.3107C48.3178 24.1793 47.8919 22.845 47.8718 21.4745C47.8761 19.623 48.6191 17.8488 49.9377 16.5411C51.2563 15.2334 53.043 14.499 54.9057 14.499V14.499Z" fill="white"/>
<path d="M70.3348 28.3693H66.1372V26.9678H70.3348C71.8235 26.9678 73.2515 26.3811 74.3057 25.3362C75.3599 24.2914 75.9543 22.8737 75.9586 21.3939C75.9996 20.6356 75.8847 19.877 75.621 19.1644C75.3573 18.4517 74.9503 17.7999 74.4248 17.2487C73.8993 16.6976 73.2664 16.2586 72.5646 15.9586C71.8627 15.6586 71.1068 15.5039 70.3429 15.5039C69.5789 15.5039 68.823 15.6586 68.1212 15.9586C67.4194 16.2586 66.7864 16.6976 66.2609 17.2487C65.7354 17.7999 65.3284 18.4517 65.0647 19.1644C64.801 19.877 64.6861 20.6356 64.7271 21.3939V33.9432H63.3171V14.499H64.7271V17.2699C64.9349 17.011 65.1567 16.7636 65.3916 16.5288C66.3749 15.559 67.6248 14.9001 68.9841 14.6351C70.3434 14.3701 71.7512 14.5109 73.0301 15.0397C74.309 15.5685 75.4019 16.4617 76.1711 17.6068C76.9402 18.7519 77.3513 20.0976 77.3524 21.4745C77.3481 23.3231 76.6074 25.0949 75.2922 26.4021C73.9771 27.7094 72.1946 28.4456 70.3348 28.4499V28.3693Z" fill="white"/>
<path d="M85.7796 28.3693H81.5658V26.9678H85.7796C86.5166 26.9699 87.2467 26.8272 87.9281 26.5479C88.6094 26.2685 89.2284 25.858 89.7495 25.34C90.2707 24.822 90.6837 24.2067 90.9647 23.5295C91.2458 22.8522 91.3893 22.1265 91.3872 21.3939C91.3893 20.6613 91.2458 19.9356 90.9647 19.2584C90.6837 18.5811 90.2707 17.9658 89.7495 17.4478C89.2284 16.9298 88.6094 16.5193 87.9281 16.24C87.2467 15.9606 86.5166 15.8179 85.7796 15.82C84.2909 15.82 82.8629 16.4067 81.8087 17.4516C80.7545 18.4964 80.1601 19.9141 80.1558 21.3939V33.9432H78.762V14.499H80.1558V17.2699C80.3635 17.011 80.5854 16.7636 80.8203 16.5288C81.8035 15.559 83.0535 14.9001 84.4127 14.6351C85.772 14.3701 87.1798 14.5109 88.4587 15.0397C89.7377 15.5685 90.8305 16.4617 91.5997 17.6068C92.3689 18.7519 92.7799 20.0976 92.781 21.4745C92.7831 22.3897 92.6036 23.2964 92.2527 24.1426C91.9018 24.9888 91.3864 25.7579 90.7361 26.4059C90.0857 27.0538 89.3132 27.5679 88.4627 27.9186C87.6122 28.2694 86.7004 28.4499 85.7796 28.4499V28.3693Z" fill="white"/>
<path d="M95.6012 11.6309V13.0163H94.1912V11.6309H95.6012ZM95.6012 28.3687H94.1912V14.4984H95.6012V28.3687Z" fill="white"/>
<path d="M98.4046 28.3688H96.9946V14.4985H98.4046V28.3688ZM111.03 21.3934V28.3688H109.652V21.3934C109.654 20.2894 109.327 19.2096 108.711 18.2909C108.095 17.3723 107.218 16.6562 106.192 16.2334C105.166 15.8106 104.037 15.7002 102.948 15.9162C101.858 16.1322 100.858 16.6648 100.074 17.4465L99.8309 17.6882V15.8034C100.876 15.0309 102.116 14.562 103.413 14.4487C104.71 14.3354 106.013 14.5823 107.178 15.1618C108.342 15.7413 109.322 16.6307 110.008 17.7309C110.693 18.8312 111.059 20.0991 111.062 21.3934H111.03Z" fill="white"/>
<path d="M113.834 11.6309V13.0163H112.424V11.6309H113.834ZM113.834 28.3687H112.424V14.4984H113.834V28.3687Z" fill="white"/>
<path d="M122.245 14.499C124.105 14.5033 125.888 15.2396 127.203 16.5468C128.518 17.854 129.259 19.6258 129.263 21.4745C129.309 22.4176 129.161 23.3602 128.829 24.245C128.498 25.1298 127.989 25.9385 127.333 26.622C126.678 27.3055 125.89 27.8497 125.017 28.2215C124.143 28.5933 123.203 28.785 122.253 28.785C121.304 28.785 120.363 28.5933 119.49 28.2215C118.617 27.8497 117.829 27.3055 117.173 26.622C116.518 25.9385 116.009 25.1298 115.677 24.245C115.346 23.3602 115.198 22.4176 115.244 21.4745C115.242 20.5592 115.421 19.6525 115.772 18.8063C116.123 17.9601 116.639 17.191 117.289 16.5431C117.939 15.8951 118.712 15.3811 119.562 15.0303C120.413 14.6796 121.325 14.499 122.245 14.499V14.499ZM122.245 27.0484C123.734 27.0484 125.162 26.4616 126.216 25.4168C127.27 24.3719 127.865 22.9542 127.869 21.4745C127.91 20.7162 127.795 19.9576 127.532 19.2449C127.268 18.5322 126.861 17.8804 126.335 17.3293C125.81 16.7781 125.177 16.3391 124.475 16.0392C123.773 15.7392 123.017 15.5845 122.253 15.5845C121.49 15.5845 120.734 15.7392 120.032 16.0392C119.33 16.3391 118.697 16.7781 118.172 17.3293C117.646 17.8804 117.239 18.5322 116.975 19.2449C116.712 19.9576 116.597 20.7162 116.638 21.4745C116.636 22.207 116.779 22.9328 117.06 23.61C117.341 24.2872 117.754 24.9025 118.275 25.4205C118.797 25.9386 119.416 26.349 120.097 26.6284C120.778 26.9078 121.508 27.0505 122.245 27.0484V27.0484Z" fill="white"/>
<path d="M132.067 28.3688H130.722V14.4985H132.116L132.067 28.3688ZM144.709 21.3934V28.3688H143.299V21.3934C143.301 20.6608 143.157 19.935 142.876 19.2578C142.595 18.5806 142.182 17.9653 141.661 17.4473C141.14 16.9293 140.521 16.5188 139.839 16.2394C139.158 15.9601 138.428 15.8173 137.691 15.8195C136.953 15.8021 136.22 15.9362 135.537 16.2134C134.853 16.4906 134.235 16.9049 133.72 17.4304L133.477 17.7204V15.8034C134.522 15.0309 135.762 14.562 137.059 14.4487C138.356 14.3354 139.66 14.5823 140.824 15.1618C141.988 15.7413 142.968 16.6307 143.654 17.7309C144.34 18.8312 144.705 20.0991 144.709 21.3934Z" fill="white"/>
<path d="M19.558 0C14.3204 0.147768 9.34723 2.31971 5.69516 6.05432C2.0431 9.78892 0 14.7918 0 20C0 25.2082 2.0431 30.2111 5.69516 33.9457C9.34723 37.6803 14.3204 39.8522 19.558 40H39.687V19.9919C39.6827 14.6883 37.5601 9.60328 33.7856 5.85453C30.0112 2.10577 24.8937 -1.71911e-06 19.558 0V0ZM26.997 24.8892H12.1676V23.2783H26.997V24.8892ZM26.997 20.8135H12.1676V19.2026H26.997V20.8135ZM26.997 16.7217H12.1676V15.1108H26.997V16.7217Z" fill="white"/>
</svg>
